<?xml version="1.0" encoding="UTF-8" standalone="no"?>
<svg
   xmlns:dc="http://purl.org/dc/elements/1.1/"
   xmlns:cc="http://creativecommons.org/ns#"
   xmlns:rdf="http://www.w3.org/1999/02/22-rdf-syntax-ns#"
   xmlns:svg="http://www.w3.org/2000/svg"
   xmlns="http://www.w3.org/2000/svg"
   xmlns:sodipodi="http://sodipodi.sourceforge.net/DTD/sodipodi-0.dtd"
   xmlns:inkscape="http://www.inkscape.org/namespaces/inkscape"
   width="714pt"
   height="508pt"
   viewBox="0 0 714 508"
   version="1.1"
   id="svg2"
   inkscape:version="0.48.4 r9939"
   sodipodi:docname="1.svg"
   inkscape:export-filename="C:\Matheus\Dev\Square Cube\Projetos\Github\Milla Theme\Logo\milla-logo.png"
   inkscape:export-xdpi="25.872688"
   inkscape:export-ydpi="25.872688">
  <metadata
     id="metadata18">
    <rdf:RDF>
      <cc:Work
         rdf:about="">
        <dc:format>image/svg+xml</dc:format>
        <dc:type
           rdf:resource="http://purl.org/dc/dcmitype/StillImage" />
        <dc:title></dc:title>
      </cc:Work>
    </rdf:RDF>
  </metadata>
  <defs
     id="defs16" />
  <sodipodi:namedview
     pagecolor="#ffffff"
     bordercolor="#666666"
     borderopacity="1"
     objecttolerance="10"
     gridtolerance="10"
     guidetolerance="10"
     inkscape:pageopacity="0"
     inkscape:pageshadow="2"
     inkscape:window-width="1366"
     inkscape:window-height="705"
     id="namedview14"
     showgrid="false"
     inkscape:zoom="0.48804233"
     inkscape:cx="692.63043"
     inkscape:cy="179.31776"
     inkscape:window-x="-8"
     inkscape:window-y="-8"
     inkscape:window-maximized="1"
     inkscape:current-layer="#a906ffff" />
  <g
     id="#ffffffff" />
  <g
     id="#a906ffff"
     style="fill:#8e44ad;fill-opacity:1">
    <path
       fill="#a906ff"
       opacity="1.00"
       d=" M 500.48 12.56 C 504.01 7.79 508.17 2.76 514.13 1.10 C 521.35 -0.48 528.89 2.98 533.66 8.36 C 539.92 15.47 543.03 24.70 545.24 33.75 C 549.35 51.84 549.63 70.52 549.23 88.99 C 548.57 134.70 543.45 180.33 534.09 225.08 C 525.72 264.43 514.09 303.16 498.19 340.15 C 492.61 352.66 486.82 365.11 479.95 376.98 C 479.05 378.86 477.38 380.70 477.96 382.94 C 481.09 402.46 485.59 422.00 494.05 439.97 C 499.13 450.48 505.90 460.59 515.59 467.36 C 523.97 473.09 534.68 475.61 544.67 473.58 C 553.64 471.44 559.79 463.81 564.18 456.18 C 567.31 451.15 568.68 445.13 572.28 440.41 C 572.63 440.34 573.35 440.19 573.70 440.12 C 574.00 442.82 574.77 445.44 576.95 447.23 C 576.46 461.52 570.52 475.07 562.95 486.98 C 556.68 496.03 548.12 504.78 536.84 506.76 C 523.14 508.39 509.15 503.11 499.03 493.92 C 486.02 482.25 477.97 466.25 471.81 450.16 C 466.47 436.52 463.43 422.15 459.93 407.98 C 450.27 419.87 439.99 431.70 426.80 439.80 C 418.87 444.79 409.48 448.21 399.99 447.14 C 391.37 446.30 383.69 441.32 377.99 435.02 C 370.45 426.68 365.57 416.38 361.75 405.91 C 360.66 406.36 359.89 407.25 359.19 408.16 C 349.45 420.98 337.84 432.94 323.33 440.28 C 313.99 445.04 302.38 447.13 292.61 442.40 C 282.02 437.50 275.56 426.90 271.66 416.33 C 263.86 394.82 263.85 371.55 264.49 348.97 C 265.93 320.21 269.28 291.52 275.12 263.32 C 275.82 259.55 277.54 254.39 282.19 254.41 C 291.09 254.35 299.92 253.17 308.64 251.44 C 311.51 250.58 315.87 252.31 314.85 255.93 C 307.35 300.38 296.64 344.68 296.67 390.01 C 296.69 400.25 296.25 411.71 302.66 420.35 C 306.77 425.90 314.70 426.08 320.58 423.54 C 330.85 419.31 338.90 411.25 346.16 403.08 C 349.78 398.54 353.76 394.15 356.52 389.01 C 355.57 382.14 353.46 375.47 352.61 368.58 C 346.68 331.38 346.05 293.57 347.04 255.99 C 348.87 204.92 354.73 153.81 367.23 104.21 C 372.54 84.69 378.44 65.07 388.38 47.34 C 392.28 40.59 396.90 33.91 403.45 29.49 C 408.91 25.78 416.30 25.87 422.01 28.98 C 427.43 31.77 431.14 36.92 433.74 42.29 C 437.93 50.96 439.66 60.54 440.98 70.00 C 444.32 96.66 441.01 123.51 437.96 150.03 C 433.89 183.27 428.28 216.32 421.08 249.03 C 413.33 283.53 403.95 317.80 390.57 350.58 C 387.68 358.31 383.67 365.56 380.60 373.20 C 382.96 385.85 386.85 398.47 393.47 409.60 C 397.59 416.16 403.64 422.58 411.75 423.51 C 418.55 424.72 425.04 421.25 430.28 417.26 C 440.84 409.01 448.35 397.63 455.27 386.33 C 456.48 384.79 456.19 382.78 456.02 380.98 C 451.48 344.52 450.35 307.70 451.06 270.99 C 452.36 219.84 457.18 168.73 466.43 118.39 C 470.87 94.84 476.09 71.39 483.71 48.65 C 488.17 36.16 492.90 23.55 500.48 12.56 M 510.17 54.42 C 507.03 55.72 505.25 58.86 503.66 61.68 C 499.48 69.81 496.89 78.63 494.48 87.42 C 487.66 112.85 483.71 138.92 480.07 164.95 C 473.96 213.69 470.71 262.85 471.92 311.99 C 471.88 324.34 473.23 336.64 473.30 348.99 C 486.44 315.94 495.70 281.47 502.51 246.60 C 512.73 193.73 517.56 139.85 517.40 86.01 C 517.18 77.30 517.16 68.46 515.02 59.97 C 514.32 57.60 513.23 54.21 510.17 54.42 M 401.92 79.91 C 396.63 89.20 393.55 99.53 390.74 109.78 C 385.46 129.90 381.91 150.42 379.23 171.03 C 375.65 197.89 373.58 224.95 372.84 252.03 C 372.13 284.40 372.71 316.87 376.53 349.04 C 379.05 344.66 380.09 339.65 381.97 335.00 C 391.87 305.57 398.92 275.26 404.70 244.77 C 410.52 213.05 415.26 181.12 418.39 149.02 C 419.70 134.72 421.39 120.40 421.06 106.01 C 420.82 97.09 420.46 87.96 417.51 79.45 C 416.40 76.39 414.42 72.88 410.82 72.51 C 406.59 72.72 403.97 76.67 401.92 79.91 Z"
       id="path6"
       style="fill:#8e44ad;fill-opacity:1" />
    <path
       fill="#a906ff"
       opacity="1.00"
       d=" M 311.37 130.52 C 317.65 128.94 324.81 128.94 330.43 132.53 C 335.63 135.80 338.23 142.00 338.63 147.94 C 339.17 157.77 336.05 167.56 330.81 175.81 C 327.03 181.58 321.94 186.84 315.34 189.25 C 307.55 191.89 297.92 189.88 292.81 183.15 C 286.91 175.34 286.97 164.65 289.52 155.59 C 292.58 144.63 300.14 134.05 311.37 130.52 Z"
       id="path8"
       style="fill:#27ae60;fill-opacity:1" />
    <path
       fill="#a906ff"
       opacity="1.00"
       d=" M 204.75 236.82 C 206.80 234.65 209.25 231.58 212.63 232.40 C 218.37 233.85 223.36 237.39 227.84 241.16 C 229.99 243.26 232.80 245.60 232.74 248.88 C 231.70 253.96 229.04 258.52 227.62 263.49 C 221.88 282.12 218.88 301.50 217.25 320.89 C 215.91 338.76 215.20 357.02 219.52 374.56 C 221.49 381.90 223.70 389.46 228.51 395.50 C 230.84 398.42 234.13 401.04 238.04 401.07 C 244.57 401.12 250.39 397.30 255.04 393.04 C 257.17 391.21 259.08 388.50 262.22 388.67 C 262.81 397.89 258.53 406.77 252.56 413.56 C 244.95 422.14 233.69 428.18 221.99 427.33 C 213.45 427.00 205.37 422.57 199.99 416.02 C 192.27 406.86 189.15 395.00 186.57 383.57 C 181.64 357.30 182.84 330.45 183.76 303.90 C 180.24 309.40 177.94 315.54 175.66 321.62 C 163.81 354.82 156.28 389.33 145.99 423.01 C 145.09 425.68 144.68 428.66 142.96 430.97 C 140.80 432.82 137.72 432.59 135.06 432.70 C 129.05 432.54 122.86 432.79 117.07 430.91 C 114.87 430.24 112.47 428.66 112.67 426.04 C 112.87 418.24 113.94 410.49 114.37 402.70 C 116.07 373.84 117.26 344.93 117.03 316.01 C 116.86 306.53 116.75 296.99 115.27 287.61 C 114.75 285.85 114.68 283.50 112.99 282.44 C 109.47 282.58 107.36 285.88 105.52 288.47 C 98.89 299.23 95.19 311.45 91.45 323.43 C 81.95 356.40 76.32 390.37 72.24 424.39 C 71.53 429.11 67.92 433.22 63.23 434.29 C 55.19 436.25 46.35 433.22 40.61 427.40 C 36.72 423.58 34.60 417.89 35.57 412.47 C 41.36 378.06 46.86 343.52 49.37 308.69 C 49.71 296.95 50.93 284.99 48.32 273.41 C 47.48 270.42 46.33 266.56 42.93 265.71 C 39.38 265.29 36.19 267.44 33.52 269.53 C 24.00 277.37 17.99 288.35 11.58 298.66 C 6.92 299.43 1.27 297.98 0.00 292.80 L 0.00 290.65 C 3.30 285.99 5.85 280.85 9.16 276.19 C 16.28 265.86 24.99 256.12 36.35 250.39 C 44.07 246.61 53.07 244.50 61.59 246.54 C 69.13 248.67 73.78 255.81 76.18 262.85 C 80.51 275.76 80.24 289.62 79.67 303.06 C 79.13 319.20 76.16 335.10 74.11 351.08 C 80.81 326.53 87.29 301.78 97.34 278.34 C 101.24 269.65 105.28 260.80 111.60 253.56 C 114.54 250.29 118.27 246.99 122.94 247.06 C 130.43 246.93 139.00 248.95 143.40 255.57 C 148.29 263.05 148.03 272.42 148.15 281.00 C 147.89 310.38 148.57 339.89 145.07 369.11 C 145.90 367.58 146.71 366.03 147.36 364.41 C 158.86 335.38 168.35 305.57 181.10 277.04 C 187.60 262.91 194.51 248.67 204.75 236.82 Z"
       id="path10"
       style="fill:#8e44ad;fill-opacity:1" />
    <path
       fill="#a906ff"
       opacity="1.00"
       d=" M 579.01 248.02 C 587.61 240.84 598.71 236.37 610.02 236.96 C 620.35 237.19 630.92 241.28 637.54 249.44 C 643.30 256.20 646.04 264.90 647.64 273.50 C 653.59 276.13 660.45 277.10 665.50 281.48 C 668.29 283.82 667.36 287.77 667.33 290.95 C 665.31 316.96 661.54 342.86 661.22 368.98 C 661.10 380.09 661.06 391.38 663.81 402.22 C 665.14 406.90 667.01 412.06 671.42 414.69 C 674.69 416.39 678.60 416.08 682.00 414.95 C 689.13 412.62 695.37 407.80 699.72 401.72 C 701.43 399.44 702.26 396.42 704.74 394.79 C 707.41 393.10 708.81 390.20 710.88 387.92 C 712.98 389.66 712.34 392.57 712.25 394.95 C 711.55 408.30 704.31 420.74 694.21 429.25 C 685.87 436.22 674.63 440.44 663.73 438.50 C 653.35 436.63 645.16 428.75 640.15 419.83 C 633.84 408.59 630.80 395.77 629.49 383.03 C 628.33 383.37 627.92 384.50 627.52 385.52 C 623.73 395.28 618.97 404.64 613.51 413.56 C 607.65 422.41 601.02 431.40 591.39 436.41 C 584.49 440.20 576.09 439.46 568.83 437.17 C 557.85 433.69 549.40 424.59 544.78 414.28 C 537.42 399.00 535.37 381.78 535.25 365.00 C 535.28 339.13 540.64 313.33 550.46 289.42 C 557.12 273.97 565.85 258.84 579.01 248.02 M 607.29 273.25 C 597.60 274.90 591.11 283.27 586.13 291.07 C 575.58 308.73 570.25 328.89 565.94 348.83 C 563.65 361.45 562.06 374.22 562.11 387.06 C 562.44 394.65 563.17 402.48 566.52 409.41 C 568.42 413.33 572.31 417.02 577.01 416.25 C 587.08 415.76 595.14 408.49 600.61 400.59 C 612.23 383.88 617.31 363.84 622.38 344.42 C 626.40 325.61 630.15 306.62 631.65 287.45 C 625.83 280.05 617.62 271.58 607.29 273.25 Z"
       id="path12"
       style="fill:#8e44ad;fill-opacity:1" />
  </g>
</svg>
